<?xml version="1.0" encoding="utf-8"?>
<!-- Generator: Adobe Illustrator 22.1.0, SVG Export Plug-In . SVG Version: 6.00 Build 0)  -->
<svg version="1.1" id="Layer_1" xmlns="http://www.w3.org/2000/svg" xmlns:xlink="http://www.w3.org/1999/xlink" x="0px" y="0px"
	 viewBox="0 0 512 512" style="enable-background:new 0 0 512 512;" xml:space="preserve">
<style type="text/css">
	.st0{display:none;}
	.st1{fill:#FFFFFF;}
	.st2{fill:#5E9726;}
	.st3{fill:#CD7834;}
</style>
<path class="st0" d="M348.8,299.7c0,6.5-0.4,14.5-1.1,25.2c-3,41.2-31.6,71.3-87.3,71.3c-55.3,0-83.8-30.1-86.9-71.3
	c-0.8-10.7-1.1-18.7-1.1-25.2V127.8h14.5v172.3c0,8.8,0.4,16,1.1,23.6c3,33.2,25.2,59.8,72.4,59.8c47.6,0,69.7-26.7,72.8-59.8
	c0.8-7.6,1.1-14.9,1.1-23.6V127.8h14.5L348.8,299.7L348.8,299.7z"/>
<g id="图层_2">
	<rect class="st1" width="512" height="512"/>
</g>
<g>
	<g>
		<path class="st2" d="M304,174.4c2.1-3.6,3.7-7.5,5.2-11.4c2.5-6.5,5-12.9,7.1-19.5c1.3-4.1,2.1-8.3,2.9-12.5
			c1.1-6.1,1.5-12.3,2-18.5c0.3-3.5,0.1-6.9,0.1-10.4c0-8.7-0.3-17.3-1.7-25.9c-0.9-5.7-2.2-11.4-4.3-16.9c-1.7-4.6-3.8-9-6.5-13.1
			c-1-1.6-1.8-3.5-3.8-4.4c0.2-0.5,0.6-1.2-0.6-1.2c0,0,0,0,0-0.1c0.6,0.2,1.1-0.1,1.6-0.7c-1.2,0-1.3-1.1-1.9-1.6
			c1.1-0.4,0.9-1.8,1-2.5c0.1-1.1-0.3-2.6,0.5-3.3c1.3-1.2,3.2-1.2,4.8-0.9c3.9,0.6,7.9-0.1,11.8,0.6c0.5,0.1,1.6,0,0.9-1.2l0,0
			c0.4,0.5,0.8,0.5,1.2,0.1c0.2-0.3,0.2-0.6-0.1-0.9c-0.4-0.4-0.9-0.5-1.2,0.2l0,0c0.5,0.3,1.3-0.3,1.7,0.7c0.2,0.5,1.3,0.2,1.8,0.2
			c1.4-0.1,2.4,0.4,3.6,0.9c2.5,0.9,3.6,2.8,4.9,4.6c1.3,1.9,2.2,4,3.1,6.2c2.4,6.1,2.3,12.4,2.7,18.7c0.3,6.4,0.3,12.9-0.2,19.4
			c-0.4,5.5-1.2,10.9-2.1,16.3c-0.4,2.8-0.6,5.6-1.4,8.4c-1,3.5-1.3,7.1-2.5,10.5c-0.3,0.8-0.1,1.7-0.2,2.4c0.5,0.5,0.9,0.3,1.2,0
			c1.5-1.7,3-3.5,4.6-5.1c2.3-2.4,4.5-5.1,7.3-7.1c0.8-0.6,1.5-1.4,2.2-2.1c2.5-2.2,4.8-4.5,7.5-6.5c1.6-1.1,3.2-2.5,4.7-3.8
			c2.2-1.9,4.9-3.4,7.4-5c6.5-4.1,13.4-7.2,20.5-10c4.6-1.8,9.3-3.2,14.1-4.2c3-0.6,5.9-1.5,8.9-2.1c3.1-0.6,6.2-1,9.2-1.5
			c4.7-0.8,9.5-0.8,14.3-0.9c1.3,0,2.6,0.2,3.9,0.1c3.3-0.2,6.5,0.6,9.6,1.5c2.5,0.7,4.9,1.9,7,3.4c1,0.7,1.8,1.6,1.4,3
			c-0.1,0.3,0,0.6,0,0.9c0,1.2,0.9,2.4-0.6,3.4c-2.1,1.5-4.4,2-6.5,0.7c-2.2-1.4-3.9-1.7-6.3-0.3c-3.6,2.2-7.8,3.5-11.1,6.3
			c-2.1,1.8-3.8,3.9-5.3,6.1c-3.1,4.5-5.1,9.5-7.3,14.4c-1.5,3.4-2.6,7-3.8,10.6c-1.4,4-2.6,8-4.4,11.8c-2.2,4.8-5.1,9.1-8.4,13.1
			c-3.6,4.3-7.5,8.4-11.7,12.1c-4.2,3.7-8.6,7-13,10.3c-3.5,2.7-7,5.3-10.9,7.4c-2.5,1.4-4.6,3.7-7.8,3.8c-5,3.1-10.7,3.3-16.2,3.8
			c-2.7,0.3-5.4,0.7-8.1,0.6c-3.6-0.1-7.3-0.4-10.9-0.1c-4.2-1.1-8.8-1.1-12.4-4c-1.7,2.2-3.3,4.3-4.8,6.5c-0.8,1.1-2,1.6-3.1,1.4
			c-2.1-0.5-4.1,0.1-6.2-0.5c-2.4-0.7-3-1.2-2.4-3.6c0.2-0.2,0.4-0.4,0.6-0.5c0.7-0.2,1.2-0.6,1.6-1.2
			C300.9,178.9,302.4,176.6,304,174.4z M323.8,156.1c1.2-1.2,2.3-2.6,3.5-3.9c2.9-3.1,5.4-6.5,8.2-9.6c2.8-3.1,5.9-6,8.7-9.1
			c2.2-2.4,4.5-4.7,6.8-6.8c4.3-3.9,8.6-7.8,13.2-11.4c1.2-0.9,2-2.4,3.4-2.9c1.6-0.6,2.4-1.8,3.5-2.8c1.7-1.5,3.5-3.1,5.9-2.6
			c1.7,0.3,2.7-0.4,3.8-1.3c0.4-0.3,0.8-0.6,1.3-0.9c2.5-1.7,4.8-3.6,7-5.4c1.4-1.2,3-2.3,4.5-3.5c1.7-1.4,4-2.2,5.7-4
			c1.2-1.3,2.9-2.4,4.4-3c1.8-0.7,3.1-2.1,4.8-2.9c2.5-1.1,4.9-2.7,7.5-3.6c0.6-0.2,1.2-0.4,1.5-1c-0.3-0.3-0.6-0.3-0.9-0.2
			c-1.6,0.4-3.3,0.5-4.9,0.8c-3.8,0.8-7.5,1.9-11.2,2.6c-3.6,0.7-6.8,2.9-10.5,3.4c-0.2,0-0.3,0.1-0.4,0.2c-1.9,1.4-4.1,2.1-6.2,3.1
			c-4.5,2.3-8.8,4.8-13,7.6c-3.6,2.4-7.1,5.1-10.5,7.7c-2.2,1.7-4.4,3.6-6.5,5.4c-1.1,0.9-2,1.9-2.9,3c-2.3,2.5-5,4.8-7.3,7.4
			c-2.2,2.4-4.5,4.7-6.5,7.3c-2.6,3.4-4.8,6.9-7.3,10.3c-3.4,4.7-4.6,10.2-6.1,15.6c-0.1,0.2-0.3,0.3,0,0.5
			C323.5,156.4,323.7,156.2,323.8,156.1z M419.1,91.1c-1.3,0.4-2.8,1-3.8,1.7c-3.1,2.3-6.7,3.9-9.7,6.4c-3.6,3-7.7,5.5-11.4,8.4
			c-3.5,2.6-6.8,5.5-10,8.5c-4.6,4.3-9.2,8.5-13.7,12.9c-5.7,5.4-9.5,12.4-15.2,17.7c-2.2,2-3.9,4.4-6.1,6.4
			c-6.9,6.7-14.9,11.9-23.2,16.7c-0.9,0.5-2.2,0.5-3.1,1.7c4.7,0.8,9.3,0.5,13.8,0.4c2.6-0.1,5.3-0.6,7.9-0.7
			c4-0.3,7.9-0.9,11.7-2.3c4.6-1.7,8.5-4.5,12.4-7.1c2.8-1.8,5.6-3.7,8.1-6c2-1.8,4.5-3,6.3-4.9c1.2-1.2,2.7-1.9,3.8-3.2
			c2.2-2.6,5-4.7,7.1-7.3c1.3-1.7,3-3,4.2-4.6c1.8-2.3,3.3-5,4.7-7.6c2.5-4.5,4.2-9.4,6-14.2c1-2.4,1.6-5.1,2.8-7.4
			c1.1-2.1,2-4.2,3-6.3c1.4-3.1,3.3-5.8,4.8-8.8c0.1-0.1,0.2-0.3,0.2-0.4C419.5,90.9,419.3,91,419.1,91.1z"/>
		<path class="st3" d="M297,182.8c-0.6,2.4,0,2.9,2.4,3.6c2.1,0.6,4.2,0,6.2,0.5c1.1,0.2,2.3-0.2,3.1-1.4c1.5-2.1,3.1-4.2,4.8-6.5
			c3.6,2.9,8.2,2.9,12.4,4c4.5,2.9,8.6,6.4,12.3,10.3c1.3,1.4,2.4,3,3.8,4.4c2.4,2.5,4.7,5.1,6.8,7.8c2.3,3,4.9,5.7,7.3,8.6
			c1.9,2.3,3.8,4.7,5.6,7.1c2.1,2.8,4.1,5.7,5.8,8.7c1.2,2.2,2.7,4.2,4,6.3c1.1,1.8,2,3.7,2.9,5.6c1.2,2.5,2.6,5,3.4,7.7
			c1.9,5.6,3.4,11.2,5.2,16.8c1.9,5.9,2.9,12,4.6,17.9c2.2,7.2,1.9,14.6,2.1,21.9c0.2,5.8,0.2,11.6,0.1,17.4
			c-0.1,4.2-0.8,8.4-1.6,12.6c-1.1,5.9-2.2,11.9-3.3,17.8c-1,5.5-1.8,11-3.5,16.2c-1.1,3.5-2.2,7.1-3.7,10.5
			c-2.3,5.4-4.6,10.7-7.3,15.9c-2.3,4.3-4.6,8.7-6.9,13c-1.9,3.6-3.9,7.2-5.9,10.8c-5.5,9.8-12.5,18.3-21.6,24.9
			c-3.2,2.3-6.7,4.1-10.3,5.8c-3.3,1.5-6.7,3.1-10.2,4.1c-3.6,1.1-7.2,2.1-10.9,2.8c-3.3,0.6-6.8,1-10,1.8c-4.1,1-8.2,1.1-12.3,0.6
			c-1.8-0.2-3.9-0.6-5-2.6c-1-1.7-0.7-3.5-0.4-5.2c0.1-0.5,1.3-0.9,2-1c4.3-0.8,8.6-1.5,13-2.1c2.8-0.4,5.5-1.2,8.2-1.6
			c3.4-0.5,6.9-1.2,10.1-2.4c3.1-1.1,6.3-2.1,9.4-3.6c2.2-1.1,4.3-2.2,6.5-3.3c1.4-0.7,2.9-1.6,4.1-2.5c1.4-1,2.7-2.4,4.1-3.6
			c1.6-1.3,2.8-2.9,4.3-4.2c1.7-1.5,3.1-3.3,4.3-5.2c1.2-1.9,2.8-3.5,3.8-5.6c1.8-3.7,4.6-6.9,6.4-10.6c1.2-2.5,2.1-5.2,3.7-7.4
			c2.9-3.9,4-8.6,6.7-12.6c1.3-2,2.1-4.3,3.1-6.5c1.8-3.9,3.2-8,4.6-12.1c1.4-4.1,2.4-8.3,3.2-12.6c1.5-7.7,3-15.4,4.4-23.1
			c1.2-6.4,1.6-12.9,1.4-19.5c-0.2-5.5-0.1-11-0.3-16.5c-0.1-3.9-1.1-7.7-2-11.5c-0.9-3.5-1.5-7-2.5-10.4c-0.9-2.9-1.4-5.9-2.4-8.8
			c-1.5-4.2-2.3-8.6-4-12.7c-2-4.9-4.3-9.7-7.1-14.3c-2.6-4.3-5.3-8.6-8.3-12.6c-2.9-3.9-5.9-7.8-9.3-11.4c-1.4-1.5-2.6-3.5-4-5
			c-2.8-2.8-5-6.1-7.7-9c-1.9-2-3.7-4.1-5.8-5.9c-4-3.5-8.5-6.1-13.5-7.7c-1,0.9-0.1,1.6-0.1,2.3c0.1,1.8-0.6,3.8-2,4.7
			c-3,1.9-6.3,3.2-9.7,3.2c-5.3,0-10.4-1.3-14-5.9c-0.9-1.2-2.3-2-3.2-3.2c-1.3-1.6-1-3.2-0.5-4.8c0.4-1.7,1.7-2.1,3.5-2.4
			c3.1-0.6,5.2,1,7.3,2.6C296.1,184.7,296.3,183.2,297,182.8z"/>
		<path class="st3" d="M145,213.5c1-0.1,1.9-0.5,2.5-0.8c-0.8,1.5-3.6,0.6-4.4,2.8c-0.3,0.7-0.5,0.6,0.3,1.3c-1.4,0.7-2.5,2-3.1,3.1
			c-1.4,2.4-4,3.7-5,6.5c-0.4,1.2-1.1,3.1-3,3.5c-0.1,0-0.2,0.1-0.2,0.2c-0.7,4.2-3.7,7.3-5.4,11.1c-1.4,3.2-2.7,6.4-4.1,9.5
			c-1.2,2.8-2.2,5.8-3.1,8.8c-0.9,2.9-2.1,5.8-2.9,8.7c-1.2,4.3-2.4,8.7-3.4,13c-1,4.2-1.6,8.5-2.2,12.8c-0.7,4.9-1,9.8-1.1,14.8
			c-0.1,4.6,0,9.1-0.1,13.7c-0.1,5.4,0.1,10.8,0.9,16.1c0.8,5.2,1.8,10.5,2.8,15.7c1.3,7.3,3.7,14.2,6.2,21.2
			c1.2,3.2,2.8,6.1,4.4,9.1c1,1.8,2.2,3.4,3.4,5c0.8,1.1,0.8,2.2,0.5,3.3c-0.1,0.4-0.3,0.9-0.3,1.3c-0.2,2.3-1.8,3.1-4.2,2.9
			c-3.4-0.3-4.4-2.9-5.8-5.1c-1.4-2.2-2.8-4.5-3.9-6.8c-1.6-3.2-3-6.5-4.1-10c-1.5-4.5-2.7-9-3.8-13.6c-0.9-3.8-1.8-7.7-2.4-11.6
			c-0.7-4.5-1.6-8.9-1.9-13.4c-0.4-4.7-0.7-9.4-0.6-14.2c0.1-5.7-0.2-11.4,0.2-17.1c0.5-6.7,1-13.5,2.3-20.1
			c1.3-6.4,2.7-12.8,4.6-19c1-3.3,2-6.6,3.3-9.9c1.6-4,3-8,4.3-12.1c0.5-1.4,1.4-2.7,2.1-4.1c0.9-1.9,1.6-3.8,2.6-5.6
			c0.8-1.4,1.8-2.5,2.4-4c0.1-0.3,0.2-0.5,0-0.7l0,0c0.6,0.4,0.7,0,1-0.5c1.2-2.5,3.1-4.5,4.6-6.9c0.3-0.6,0.9-1.7,2.1-1.8
			c0.1,0,0.4-0.2,0.4-0.3c-0.4-1.8,1.2-2.5,2.2-3.3c1.7-1.4,2.9-3.1,4.4-4.6c0.3-0.3,0.7-0.4,1.1-0.4c0.4,0,0.9-0.2,0.8-0.7
			c-0.1-1.5,1.1-1.5,2-1.5c0.9,0,0.9-0.4,0.7-1c1.1,0.5,3.4,0.5,4.5,0.1c-0.1,0.1-0.8-0.1-1.1,0.4c-0.3,1,1.4,0.9,0.7,2
			c0.1,0,0.1,0,0,0c0-0.1,0-0.1,0-0.2c-0.6-0.6-1.5-0.6-2-0.2c-0.9,0.8,0.5,1.3,0.5,2c-0.2,0.2-0.2,0.3,0,0.5
			C144.7,213.8,144.9,213.7,145,213.5z M143.8,211.5c-1.1-0.5-1.8-0.7-2.6-0.1C142,213.1,142.8,212.5,143.8,211.5z M141.8,218
			c-0.5-0.5-0.9-0.5-1.3,0.1C140.9,218.5,141.3,218.6,141.8,218z"/>
		<path class="st3" d="M304,174.4c-1.6,2.2-3.1,4.5-4.7,6.7c-0.4,0.6-0.9,1-1.6,1.2c-0.9-2-2.1-3.3-4.3-4c-3.4-1.2-7.1-1.7-10.3-3.6
			c-1.6-0.9-3.7-0.3-5.6-0.3c-5.2-0.2-10.4,0.2-15.5,0.7c-4.7,0.5-9.5,0.9-14.1,1.9c-2,0.4-4.2,0.6-6.3,0.9
			c-3.1,0.4-6.1,1.3-9.2,1.9c-2.8,0.5-5.7,0.7-8.4,1.5c-3.5,1-7.1,1.1-10.7,2.1c-2.8,0.8-5.9,1.2-8.8,2c-3.2,1-6.4,1.6-9.5,3
			c-1.8,0.8-3.7,1.1-5.5,1.9c-4.3,1.8-8.6,3.5-12.7,5.7c-3.8,2-7.6,4.1-11.1,6.6c-1.8,1.2-3.3,3-5.1,3.7c-2.4,0.9-3.1,3.5-5.4,4.3
			c-0.9,0.3-2.1-0.4-2.7,0.9c0.4-1.6-0.4-1.7-1.4-1.1c-1.2-2.7-1.2-2.7-2.5-2.1l0,0c1.6-0.9,2.1-1.8,1.3-3.3c0.8-0.5,1.8-0.9,2.8-1
			c0.5-0.6-0.1-1.2,0.1-1.7c0.8,0.8,1.5,0.4,1.9-0.3c1.1-2,3-3.1,4.6-4.5c1.7-1.5,3.6-2.6,5.5-3.9c2.5-1.7,5-3.3,7.7-4.7
			c1.7-0.9,3.5-1.5,5.2-2.4c4-2.3,8.2-4,12.6-5.4c4.6-1.5,9.1-3.1,13.7-4.5c3.3-1,6.6-1.7,10-2.3c5.9-1.2,11.7-2.4,17.6-3.4
			c3.6-0.6,7.2-1.5,10.9-2.2c3.6-0.6,7.2-1.2,10.7-1.7c5.7-0.7,11.5-1.3,17.3-1.6c2.5-0.1,5.1-0.3,7.6-0.3c1.8,0,3.7,0.1,5.6-0.1
			c1.4-0.2,2.7,0.2,4,1c1.2,0.8,2.6,1.3,4,1.6c3.6,0.8,7,2,10,4C302.7,172.2,303.6,173.1,304,174.4z"/>
		<path class="st3" d="M146.2,414.4c1.3,0.2,2.8,0,4.3,0.3c1.2,0.2,1.5,1.1,1.8,1.7c2.8,6.4,7.4,11.1,13.8,13.8
			c7.1,3.1,13.5,7.3,20.6,10.4c2.5,1.1,5,1.9,7.6,2.8c2.8,1,5.6,1.7,8.4,2.3c2.3,0.6,4.7,0.6,7.1,0.7c5.9,0.1,11.9,0.2,17.8,0.5
			c4,0.2,8.1,0.1,12.2,0.3c4.1,0.2,8.3-0.2,12.4,0.3c1.9,0.2,3.7,0.9,5.4,1.7c1.2,0.6,2.4,1.8,2.5,3.6c0.1,2.5-0.1,4.9-2.7,6
			c-1.9,0.8-4,1-6.1,0.4c-2.8-0.8-5.6-0.5-8.4-0.5c-2.5,0-5.1-0.1-7.6-0.3c-3.4-0.2-6.7-0.2-10.1-0.3c-5.5-0.1-11-0.5-16.6-0.6
			c-5.5-0.1-10.8-1.1-15.9-3c-3.8-1.4-7.5-2.8-11.1-4.7c-4.2-2.3-8.3-4.8-12.5-7.1c-2.7-1.4-5.6-2.6-8.2-4.1
			c-4.4-2.6-8.7-5.4-11.5-9.9c-1.4-2.3-2.6-4.9-3.3-7.5C145.5,419,144.9,416.5,146.2,414.4z"/>
		<path class="st3" d="M157.8,360c1-2.7-0.2-5.9,1-9c0.7-1.7,1.8-1.1,2.7-1.2c0.6-0.1,1.2,0.3,1.7-0.3c0.3-0.4,0.7-0.1,1.1,0.1
			c1.9,1,3.3,2.3,4.3,4.4c1.2,2.7,2.4,5.3,2.3,8.4c-0.1,3-1.8,5.4-4.7,6.1c-2.1,0.5-5.9-1.3-6.7-3.3c-0.3-0.8-1.2-1.2-1.3-2.2
			C158.2,362.1,158.2,361.2,157.8,360z"/>
		<path class="st3" d="M341.5,315.2c2.1,1.5,4,3,5.1,5.3c1.5,3.1,1.3,6.5-0.2,9.4c-1.1,2.1-3.6,2.4-5.7,2c-1.8-0.3-3-1.6-3.8-3.4
			c-1.3-3.1-0.7-6.2-0.4-9.3c0.2-2.4,1.4-3.1,3.8-3.1C340.7,316.1,341.5,316.2,341.5,315.2z"/>
		<path class="st3" d="M168.7,264.7c-2.3,0.3-4.5,0.5-6.6,0.9c-3.5,0.6-6.7-3-5.7-6.4c0.6-2,1.3-3.9,1.8-5.9
			c0.3-1.1,0.9-1.6,1.9-1.6c1.7,0,3.5-0.9,5,0.9c0.8,0.8,0.9,1.5,0.8,2.4c-0.2,1.6,0.2,2.7,1.8,3.2c0.4,0.1,0.6,0.4,0.8,0.8
			c0.4,1.2,0.3,2.4,0.7,3.6c0.1,0.4,0.3,0.8-0.3,1C168.1,263.7,168.6,264.2,168.7,264.7z M168.4,264.4c-0.1-0.3-0.3-0.4-0.5-0.4
			c-0.3,0-0.5,0.2-0.5,0.5c0,0.3,0.3,0.4,0.5,0.3C168.1,264.9,168.4,264.8,168.4,264.4z"/>
		<path class="st3" d="M364.4,253.8c-1.4,1.8-1.8,3.9-3.5,5.4c-1.5,1.3-3.2,1.3-4.8,1.1c-0.9-0.1-1.8-1.5-2-2.7
			c-0.3-1.6-0.3-3.3,0.3-4.8c0.5-1.3,0.2-2.7-0.1-4.1c-0.5-2.9,0.5-3.9,3.3-4.3c1.7-0.2,2.9-0.2,4.3,0.9c1.3,1.1,1.7,2.4,1.6,3.8
			c-0.2,1.5,0.9,2.9,0,4.4C363.1,254.1,363.8,254.3,364.4,253.8z"/>
		<path class="st3" d="M200.8,315.6c0.2-2-0.6-3.4,0.1-5c0.6-1.2,1.3-1.9,2.6-1.6c1.3,0.2,1.6-0.4,1.8-1.5c0.3-2.5,1.3-3.2,4-3.2
			c1.3,0,2.4,0.1,3.4,0.9c0.5,0.4,0.9,0.9,1,1.7c0.5,4.2-0.9,7.8-4.8,9.6c-1.7,0.8-3.9,1.6-6.1,0.3
			C202,316.5,202.4,314.7,200.8,315.6z"/>
		<path class="st3" d="M235.4,343.4c0.8,1,1.9,1.2,3,1.4c3.5,0.6,4.3,1.6,4,5.1c-0.1,1.4,0.4,2.8-0.7,4c-1.7,1.8-3.7,2.9-6.2,2.7
			c-1.5-0.1-4.3-2.5-4.6-4.1c-0.4-2.4-0.6-4.9,0.4-7.3c0.4-0.9,1.2-1,2-1.1C234,344,234.8,344.1,235.4,343.4z"/>
		<path class="st3" d="M286,390c0.3,1.2,0.7,2.9-0.7,4.3c-1.4,1.4-3.2,1.9-5.1,2c-3.6,0.2-6.6-3-6.5-6.7c0-1.8,0.8-3.5,2.1-4.6
			c1.2-1,3.1-0.9,4.7-0.8C284,384.4,286.1,385.9,286,390z"/>
		<path class="st3" d="M135.6,333.3c0,2.8-3,6-6.1,6.6c-0.5,0.1-1.2-0.2-1.3,0.6c0,0-0.1-0.1-0.1-0.1c-2-0.1-4-0.6-4.1-3
			c-0.1-1.4-0.3-3,0.8-4.3c0.1-0.2,0.1-0.6,0.2-0.6c2-0.6,1.8-2.4,2.3-3.9c0.1-0.3,0.2-0.5,0.5-0.6c1.9-0.8,3.8-1.2,5.7-0.4
			c1,0.4,1.8,1.1,1.8,2.5C135.2,331.2,135.5,332.3,135.6,333.3z"/>
		<path class="st3" d="M321.6,421.3c-2.3,0.5-3.9-1.8-4-4.3c-0.1-2-0.1-4,0.5-5.9c0.1-0.3,0.1-0.5,0.3-0.8c2.2-2,7.7-1.6,9.6,0.7
			c0.4,0.5,0.5,1,0.5,1.6c0,3.2-0.8,6-3.8,7.6C323.7,420.8,322.8,421.7,321.6,421.3z"/>
		<path class="st3" d="M213.5,396.9c0.3-1.6-0.4-3.1-0.1-4.7c0.2-0.7,0.5-1.1,0.9-1.5c1.8-1.4,5.2-1.4,7.2-0.3
			c0.6,0.3,0.9,0.7,1,1.2c0.6,2.1,0.9,4.1,0.3,6.3c-0.6,2.2-3.4,4.4-5.7,4.4c-1.6,0-3.8-2.7-3.8-4.7
			C213.3,397.5,213.4,397.2,213.5,396.9z"/>
		<path class="st3" d="M169.3,313.1c0,1.9,0,3.7-0.2,5.6c-0.2,2.3-4.9,5.9-7.9,5.3c-1.8-0.4-3.3-4.2-2.7-6.2c0.6-2,2.6-3.1,3.1-5.3
			c0.2-1,5.1-1.2,6-0.4C168.1,312.6,168.6,313,169.3,313.1z"/>
		<path class="st3" d="M290,353.7c-2,0.4-3-1.2-3.5-2.4c-1-2.4-1.4-5.3,0.4-7.2c1-1.1,2.5-2.9,4.8-2.5c1.3,0.2,2.8-0.3,3.9,0.9
			c0.6,0.7,1.2,1.3,0.9,2.4c-0.4,1.3,0.1,2.7-0.2,4.1C295.8,351.5,293,353.8,290,353.7z"/>
		<path class="st3" d="M292,244.7c-4,0.8-6.4-3.8-5.8-7c0.4-2.3,1.8-3.7,3.9-4.4c2-0.6,4.1,0.4,5.1,2.3c0.1,0.2,0.3,0.5,0.5,0.7
			c1.4,1.5,2.1,4.6,1,6.2C295.6,243.9,294,245,292,244.7z"/>
		<path class="st3" d="M328.6,367.7c0-3.3,1.5-4.9,4.9-5.6c1.7-0.3,3.2-0.8,4.6,0.6c0.7,0.6,1.1,1.2,1.2,2.1
			c0.6,3.7-1.5,7.3-4.9,8.3c-2.4,0.8-5.3-1.2-5.6-3.8C328.8,368.7,328.6,368.1,328.6,367.7z"/>
		<path class="st3" d="M222.9,244c-2.1-2-2.6-4.2-1.8-6.9c0.4-1.2,0.3-2.4,1.2-3.5c0.4-0.5,0.8-0.9,1.2-0.8c1.7,0.4,3.7-1.1,5.1,0.9
			c0.1,0.2,0.4,0.3,0.5,0.4c1.7,2.8-0.2,8.4-3.1,9.3C225.2,243.8,224,243.4,222.9,244z"/>
		<path class="st3" d="M272.2,449.9c0.1,1.3,0.1,2.4,0.3,3.5c0.2,1.1-0.1,1.9-0.9,2.6c-2.1,2-4.8,1.4-7.2,1.3
			c-1.1-0.1-1.4-1.8-2.2-2.7c-1.3-1.5,0.8-5.5,2.7-5.8C268.8,448.4,268.8,448.4,272.2,449.9z"/>
		<path class="st3" d="M269.1,301.5c-2.8,0-4.7-1.9-4.5-4.9c0.1-1.8,2-4.8,4.2-4.5c1.7,0.2,3.6-0.8,5,0.9c0.5,0.7,0.8,1.6,0.8,2.6
			C274.4,299.9,272.9,301.5,269.1,301.5z"/>
		<path class="st3" d="M142.5,411.3c-6.1-0.4-6.7-4.4-6-9.1c1.3-0.6,2.9-0.5,4.2-1.2c0.8-0.4,1.3,0.4,2,0.7c2.2,0.9,3.1,2.9,2.9,5.3
			c-0.2,2-0.5,3.7-2.8,4C142.6,410.9,142.5,411.3,142.5,411.3z"/>
		<path class="st3" d="M225.9,204c-0.9,1-2.5,0.6-3.8,1.4c-1.2,0.7-2.1-0.9-2.5-1.8c-0.6-1.4-1.3-2.9-0.6-4.5c0.1-0.2,0-0.7,0.3-0.7
			c1.8-0.3,3.5-1.7,5.4-0.8c0.5,0.2,1.2,0.5,1.2,1.5C225.9,200.7,226.9,202.3,225.9,204z"/>
		<path class="st3" d="M201.1,439.2c-0.9,0.8-2.5,0.2-3.6,1.1c-0.2-0.6-1.3-0.7-1.9-1.6c-1.2-1.9-0.8-3.6,0-5.4
			c0.2-0.5,0.7-0.5,1-0.5c1.5-0.2,3.1-0.5,4.6,0.5c0.8,0.5,0.9,1.7,0.7,1.9C201,436.4,202.6,438.1,201.1,439.2z"/>
		<path class="st3" d="M145.2,207.9c0.5-1.3,2.1-1.4,2.7-2.6C147.6,206.9,145.6,206.5,145.2,207.9z"/>
		<path class="st3" d="M150.2,211.1c0.1,0,0.4-0.1,0.9-0.1C150.6,211.2,150.3,211.1,150.2,211.1z"/>
		<path class="st2" d="M323,30.9c-0.3-0.2-0.5-0.4,0-0.7c0,0,0,0,0,0C322.5,30.5,322.5,30.7,323,30.9L323,30.9z"/>
		<polygon class="st3" points="145.9,205.3 145.8,205.3 145.9,205.2 		"/>
		<path class="st3" d="M148.3,211.5c-0.1-0.1-0.2-0.2-0.3-0.3C148.1,211.3,148.2,211.4,148.3,211.5L148.3,211.5z"/>
		<path class="st3" d="M148.6,208c-0.1,0-0.2,0.1-0.3,0.1C148.5,208.3,148.6,208.2,148.6,208C148.7,208,148.6,208,148.6,208z"/>
		<path class="st3" d="M148.3,211.5c0.2,0,0.3,0,0.5,0.1C148.5,211.9,148.4,211.5,148.3,211.5C148.3,211.5,148.3,211.5,148.3,211.5z
			"/>
	</g>
</g>
</svg>
